<svg width="115" height="83" viewBox="0 0 115 83" fill="none" xmlns="http://www.w3.org/2000/svg">
<g filter="url(#filter0_d_1874_520)">
<path d="M104.918 71C106.196 71 107.234 70.1162 107.254 69.0244C107.534 55.0222 103.061 43.8966 93.9552 35.9943C88.0445 30.8301 80.3367 27.1562 71.0712 25.042C66.5983 24.0196 61.9856 23.413 57.3528 23.2571V5.99684C57.3329 5.23434 56.8536 4.55849 56.0748 4.2119C55.2961 3.88263 54.3576 3.93462 53.6387 4.38519L8.94903 32.3031C7.93063 32.9443 7.691 34.1747 8.42984 35.0758C8.56962 35.2491 8.74934 35.4051 8.94903 35.5264L53.6387 63.3403C54.3576 63.7736 55.2961 63.8429 56.0748 63.4963C56.8536 63.1497 57.3528 62.4739 57.3528 61.7114V45.4562C73.4475 45.8202 86.2873 49.9273 94.5742 57.4136C101.084 63.2884 102.602 69.267 102.642 69.3884C102.861 70.3241 103.8 71 104.918 71Z" fill="url(#paint0_linear_1874_520)" shape-rendering="crispEdges"/>
</g>
<defs>
<filter id="filter0_d_1874_520" x="0.48681" y="0.243405" width="114.293" height="82.0264" filterUnits="userSpaceOnUse" color-interpolation-filters="sRGB">
<feFlood flood-opacity="0" result="BackgroundImageFix"/>
<feColorMatrix in="SourceAlpha" type="matrix" values="0 0 0 0 0 0 0 0 0 0 0 0 0 0 0 0 0 0 127 0" result="hardAlpha"/>
<feOffset dy="3.75659"/>
<feGaussianBlur stdDeviation="3.75659"/>
<feComposite in2="hardAlpha" operator="out"/>
<feColorMatrix type="matrix" values="0 0 0 0 0 0 0 0 0 0 0 0 0 0 0 0 0 0 0.24 0"/>
<feBlend mode="normal" in2="BackgroundImageFix" result="effect1_dropShadow_1874_520"/>
<feBlend mode="normal" in="SourceGraphic" in2="effect1_dropShadow_1874_520" result="shape"/>
</filter>
<linearGradient id="paint0_linear_1874_520" x1="57.6333" y1="4" x2="57.6333" y2="70.9998" gradientUnits="userSpaceOnUse">
<stop stop-color="white"/>
<stop offset="1" stop-color="white" stop-opacity="0.3"/>
</linearGradient>
</defs>
</svg>
